<?xml version="1.0" encoding="UTF-8"?>
<svg id="Layer_1" xmlns="http://www.w3.org/2000/svg" version="1.1" viewBox="0 0 463.5 124.8">
  <!-- Generator: Adobe Illustrator 29.0.1, SVG Export Plug-In . SVG Version: 2.1.0 Build 192)  -->
  <defs>
    <style>
      .st0 {
        fill: #375725;
      }

      .st1 {
        fill: #849d7b;
      }

      .st2 {
        fill: #548135;
      }

      .st3 {
        fill: #496242;
      }

      .st4 {
        fill: #a8cf8c;
      }

      .st5 {
        fill: #cce3c5;
      }
    </style>
  </defs>
  <g>
    <path class="st1" d="M429.4,94.3v2.4c0,4.8-3.2,9.1-9.4,9.1s-6.7-1.9-6.7-4.1v-2.2h.2c1.2,1.2,3.3,2.1,6,2.1s5-1.5,5-4v-2.8c-.4,1.4-2.2,2.8-5,2.8-4.7,0-7.9-3.2-7.9-7.7s3.5-9.7,9.7-9.7,7.8,3.5,7.8,8.4v5.9M416.7,89.3c0,2.5,1.5,4.3,3.8,4.3s4.1-1.8,4.1-4.9-1.5-4.4-3.6-4.4-4.3,2.1-4.3,5"/>
    <path class="st1" d="M399.6,100.1c-4.7,0-8.5-3.2-8.5-8.6v-10.9h.9c2.7,0,4,1.2,4,3.4v7c0,3.5,1.7,5,3.9,5s3.3-1.4,3.3-4.6v-10.7h.8c2.8,0,4,1.2,4,3.4v7.1c0,5.9-2.8,9-8.4,9"/>
    <path class="st1" d="M388.3,85.3c-.7-.3-1.5-.5-2.8-.5-2.2,0-3.3,1.2-3.3,4.1v11h-1.4c-2.2,0-3.5-1.1-3.5-3.1v-8.8c0-3.8,2-7.5,7-7.5s4,1.6,4,3.2v1.7h-.2.2Z"/>
    <path class="st1" d="M349.2,99.8c-2.2,0-3.5-1.4-3.5-3.2v-7.6c0-3.2-1.4-4.7-3.9-4.7s-3.5,1.5-3.5,4.3v11.1h-1.4c-2,0-3.3-1.4-3.3-3.2v-8.3c0-4.1,2.7-8.2,8.6-8.2s8.2,3,8.2,8.5v11.2h-1.3,0Z"/>
    <path class="st1" d="M321,92.2h-3.2c.4,2.4,2.5,4,5.3,4s4.3-.4,5.9-1.8h.2v1.5c0,2.4-1.6,4.3-6.9,4.3s-9.4-3.8-9.4-9.6,3.9-10.4,9.4-10.4,7.7,2.8,7.7,7.4-2.7,4.7-9,4.7M321.9,84.1c-2.3,0-3.9,1.9-4,4.1v.6h2.1c4.5,0,5.5-.5,5.5-1.8s-1.4-2.9-3.6-2.9"/>
    <path class="st1" d="M302,100.1c-6.5,0-12.2-4.7-12.2-12.2s5-12.9,13.3-12.9,6.5,2.5,6.5,4.8v1.6h-.2c-1.6-1.4-4.3-2.1-6.9-2.1-4.5,0-7.7,3.3-7.7,7.8s3.3,8.6,7.7,8.6,2.9-.9,2.9-2.3v-2c0-1.5-.2-2.8-.4-3.5h2.5c1.4,0,2.5,1.2,2.5,2.3v3.9c0,3.7-2,6-8.1,6"/>
    <path class="st1" d="M277.5,100.2c-1.1,0-2.3-.2-3.6-1.4l-1.3-1.2c-1,1.1-3,2.6-6.6,2.6-5.3,0-8.1-3-8.1-7s2.3-5.5,4.7-6.8c-1.2-1.4-2.3-3.1-2.3-4.7,0-3.2,2.4-6.2,7-6.2s6.1,2.2,6.1,5.6-2.1,4.6-5.1,6.3c1,1.4,3.1,3.7,4.3,5,1.3-1.4,2.4-4,2.5-6.2h1c1.1,0,2,.6,2,2.5s-1.6,4.7-2.9,6.3l.7.6c1.6,1.5,2.6,1.9,3.8,2,0,1.8-.6,2.7-2.3,2.7M265,89c-1.2.7-2.4,2-2.4,3.5,0,2.8,1.5,3.8,4.1,3.8s2.7-.5,3.5-1.4c-1.4-1.4-4.1-4.4-5.3-5.9M267.3,78.8c-1.6,0-2.4.9-2.4,2.5s.9,2.3,1.6,3.3c2.1-1.2,3.1-2.3,3.1-3.6s-.8-2.3-2.3-2.3"/>
    <path class="st1" d="M206.9,100h-1c-4.5,0-7.7-2.5-7.7-6s2.5-6,9.5-6h1.7v-.3c0-2.7-1.3-3.5-4.1-3.5s-5.3,1.4-6,2.2h-.2v-1.5c0-2.2,1.9-4.7,6.9-4.7s8.1,2,8.1,8.6v4.4c0,4.1-3,6.8-7.2,6.8M209.5,91.4h-1.7c-3.6,0-4.7.8-4.7,2.4s1.2,2.3,3.3,2.3,3.1-1,3.1-3v-1.8Z"/>
    <path class="st1" d="M197,78.4c-.7-.3-1.6-.5-2.8-.5-2,0-3.4.6-3.4,3.2v1.7h5.5v1.4c0,1.7-1.8,2.7-3.4,2.7h-2.1v12.8h-1.9c-1.5,0-2.9-1.2-2.9-2.8v-16c0-2.7,1.9-7,7.5-7s3.7,1.2,3.7,3v1.6h-.2Z"/>
    <path class="st1" d="M184,78.4c-.7-.3-1.6-.5-2.8-.5-2,0-3.4.6-3.4,3.2v1.7h5.5v1.4c0,1.7-1.8,2.7-3.4,2.7h-2.1v12.8h-1.9c-1.5,0-2.9-1.2-2.9-2.8v-16c0-2.7,1.9-7,7.5-7s3.7,1.2,3.7,3v1.6h-.2Z"/>
    <path class="st1" d="M224.1,99.8c-4,0-6-2.1-6-5.9v-19.7h1.4c2.3,0,3.4,1.4,3.4,3.2v16.1c0,1.9,1,2.5,3.2,2.5h1.3v1c0,2.1-1.1,2.9-3.2,2.9"/>
    <path class="st1" d="M168.4,99.8c-2,0-3.1-1.2-3.2-2.3-.2-1.6-.5-2.8-.6-3.9h-9.6c-.5,2.1-.9,4.1-1.3,6.2h-1.9c-1.6,0-2.3-.8-2.3-2.3,0-3.5,4.5-17.8,8.3-22h2c2,0,3.2,1.1,4,2.3,2.2,4,5.9,14.4,6.8,22.1h-2.2ZM159.6,79.9c-1.4,2.5-3,6.4-3.8,9.7h7.5c-.8-3.4-2.5-7.5-3.8-9.7"/>
    <path class="st3" d="M413.2,25c1-1.2,2.3-2.1,3.5-2.1h1.7v6.8h10.4v3.1c0,1.5-1.4,3.5-4.4,3.5h-5.9v11.7c0,3.9,1.7,5.4,4.7,5.4s4.2-.4,5.4-1.1h.3v2.7c0,3.1-2.3,5-6.6,5-7.6,0-11.3-4.1-11.3-11.1v-18c0-3,.5-4.1,2.2-5.9"/>
    <path class="st3" d="M406.4,37c-1.1-.5-2.4-.9-4.3-.9-3.3,0-5.1,1.8-5.1,6.4v17.2h-2.1c-3.3,0-5.4-1.6-5.4-4.8v-13.8c0-6,3.2-11.7,11.1-11.7s6.2,2.6,6.2,4.9v2.7h-.4Z"/>
    <path class="st3" d="M372.2,60.1h-1.5c-7.1,0-12-4-12-9.5s3.9-9.4,14.9-9.4h2.6v-.4c0-4.2-2-5.5-6.5-5.5s-8.4,2.1-9.5,3.4h-.3v-2.4c0-3.3,3-7.3,10.9-7.3s12.7,3.2,12.7,13.4v6.8c0,6.3-4.7,10.7-11.3,10.7M376.2,46.6h-2.7c-5.7,0-7.3,1.4-7.3,3.8s1.9,3.7,5.1,3.7,4.8-1.5,4.8-4.6v-2.9h0Z"/>
    <path class="st3" d="M356.8,26.4c-1.2-.4-2.5-.6-4.3-.6-3.1,0-5.3,1.1-5.3,5v2.7h8.6v2.1c0,2.7-2.8,4.2-5.3,4.2h-3.2v20h-3c-2.3,0-4.5-1.8-4.5-4.4v-25.1c0-4.2,3-11,11.6-11s5.7,1.8,5.7,4.7v2.5h-.2Z"/>
    <path class="st3" d="M331.3,60c-6.1,0-9.5-3.2-9.5-9.4v-30.9h2.1c3.7,0,5.3,2.2,5.3,5v25.2c0,3,1.5,4,5,4h2v1.6c0,3.2-1.7,4.5-5,4.5"/>
    <path class="st3" d="M301.8,47.9h-4.9c.5,3.8,4,6.1,8.4,6.1s6.8-.6,9.2-2.8h.3v2.3c0,3.9-2.6,6.8-10.8,6.8s-14.7-5.9-14.7-15,6.1-16.3,14.7-16.3,12,4.4,12,11.6-4.1,7.3-14,7.3M303.1,35.3c-3.6,0-6.1,3-6.3,6.4v1h3.2c7,0,8.6-.8,8.6-2.9,0-3-2.3-4.5-5.7-4.5"/>
    <path class="st3" d="M208.4,27.6c-2.4,0-4.3-2-4.3-4.4s2-4.3,4.3-4.3,4.4,2,4.4,4.3-2,4.4-4.4,4.4M213.7,60c-5.8,0-8.9-3.2-8.9-9.4v-20.3h2.1c3.3,0,5.3,1.8,5.3,5.6v14c0,3,1.3,4,4.6,4h1.4v1.6c0,3.2-1.3,4.5-4.4,4.5"/>
    <path class="st3" d="M194.3,59.7c-2.9,0-4.9-1.6-4.9-5s-.8-18.7-1.4-22.5c-.5,1.3-1.3,2.8-1.8,4.5l-5.3,16.3c-.9,2.7-2.1,5.3-3.2,6.8h-2.1c-2.5,0-4.7-2-6.1-6l-5.4-16c-.6-2-1.5-4.2-2.1-5.6-1,5.4-1.7,20.7-1.7,27.6h-2.7c-2.8,0-4.8-1.8-4.8-5,0-8.5,1.6-25.4,3.1-33h1.6c5.3,0,9,2.4,10.4,6.5l5.3,14.9c1.2,3.2,1.8,5.5,2.2,7.2.3-1.4.6-2.6,1.1-3.9l4.4-13.5c2-6,4.4-9.9,5.9-11.2h.9c4.2,0,7,2.7,7.6,7.9.7,6,1.8,22.5,1.8,30.2h-2.9Z"/>
    <path class="st1" d="M354.4,74.1h2c1.6,0,3,1.2,3,2.8v13.3c-.3,3,.7,5.4,4.1,5.4s4.2-1.5,4.1-4.5c-.3-4-4.6-4.1-4.6-4.1,0,0,0-3.1.3-4.1,0,0,8.9.3,9.2,7.8,0,5.2-3.1,9.1-8.4,9.1s-9.6-3.7-9.6-9.2v-16.5"/>
    <path class="st1" d="M243,73.9h-1.5s-.2,15.1,0,16.5c.3,3-.7,5.4-4.1,5.4s-4.2-1.5-4.1-4.6c.3-4.1,4.7-4.1,4.7-4.1,0,0,0-3.1-.3-4.1,0,0-9,.3-9.3,7.9,0,5.3,3.1,9.2,8.4,9.2s9.7-3.7,9.7-9.4v-13.6c0-1.9-1.1-3.2-3.4-3.2"/>
    <path class="st3" d="M277.9,19.3h-2.3s-.3,23.5,0,25.5c.5,4.6-1.1,8.5-6.1,8.5s-6.3-2.3-6-7.1c.4-6.3,6.9-6.3,6.9-6.3,0,0,0-4.8-.5-6.5,0-.2-13.3.5-13.7,12.3-.2,8.2,4.5,14.3,12.4,14.3s14.4-5.8,14.4-14.5v-21.1c0-3-1.5-5-5.1-5"/>
    <path class="st3" d="M243.9,19.6h-2.3s-.3,23.5,0,25.5c.5,4.6-1.1,8.5-6.1,8.5s-6.3-2.3-6-7.1c.4-6.3,6.9-6.3,6.9-6.3,0,0,0-4.8-.5-6.5,0-.2-13.3.5-13.7,12.3-.2,8.2,4.5,14.3,12.4,14.3s14.4-5.8,14.4-14.5v-21.1c0-3-1.5-5-5.1-5"/>
  </g>
  <g>
    <path class="st4" d="M43.2,107.5l30.9-17.9v8s8.6-3.1,15.4-11.1c7-8.3,8-23,8-23l17.4,1.4s1.2,16.1-11.7,32.7c-10.3,13.3-29,17.9-29,17.9v9.3s-30.9-17.3-30.9-17.3Z"/>
    <path class="st5" d="M106.2,80.3l-18.5-32.1h8.6s-1.9-7.2-9.9-13.6c-8.3-6.7-19.7-7.8-19.7-7.8l-8.8,1.5.6-19.1h6.9c0,.1,16.1-.6,32.1,12.5,12.9,10.5,17.3,26.6,17.3,26.6h11.1l-19.8,32.1Z"/>
    <path class="st0" d="M81.5,18.5l-32.8,17.9.2-7.3s-8.3,3.5-15,11.6c-7,8.4-7.4,19.1-7.4,19.1l-17.9,4.8-.2-2.5s-.9-15.7,11.9-32.5c10.3-13.3,28.5-18.4,28.5-18.4V0l32.7,18.5Z"/>
    <path class="st2" d="M43.2,107.5l13.9-8c-1.6-.2-9.5-1.3-17-7.4-8-6.5-11.2-14.3-11.2-14.3h8.2c0,0-19.1-33.3-19.1-33.3L0,77.8l10.9-.2s4,16.2,16.9,26.7c16.2,13.1,32.7,13,32.7,13h.4l-17.7-9.9Z"/>
  </g>
</svg>